<svg xmlns="http://www.w3.org/2000/svg" viewBox="0 0 1200 630" width="1200" height="630">
  <defs>
    <linearGradient id="bg" x1="0" y1="0" x2="1" y2="1">
      <stop offset="0%" stop-color="#0F2D4A"/>
      <stop offset="100%" stop-color="#1B4D7A"/>
    </linearGradient>
    <clipPath id="d-og">
      <path d="M18 10h8v60h-8zM26 10h16a28 28 0 0 1 0 56H26v-8h16a20 20 0 0 0 0-40H26z" transform="translate(52,42)"/>
    </clipPath>
  </defs>
  <rect width="1200" height="630" fill="url(#bg)"/>
  <!-- Logo top-left -->
  <rect x="60" y="50" width="80" height="80" rx="14" fill="rgba(255,255,255,0.15)"/>
  <g clip-path="url(#d-og)">
    <rect x="52" y="42" width="80" height="16" fill="#fff"/>
    <rect x="52" y="63" width="80" height="16" fill="#fff"/>
    <rect x="52" y="84" width="80" height="16" fill="#fff"/>
  </g>
  <!-- Main title -->
  <text x="600" y="280" text-anchor="middle" font-family="sans-serif" font-weight="700" font-size="72" fill="#FFFFFF">Display Pallets</text>
  <!-- Subtitle -->
  <text x="600" y="350" text-anchor="middle" font-family="sans-serif" font-weight="400" font-size="32" fill="rgba(255,255,255,0.8)">Specialist in 60x80 displaypallets</text>
  <!-- Bottom accent line -->
  <rect x="500" y="400" width="200" height="4" rx="2" fill="rgba(255,255,255,0.3)"/>
  <!-- Domain -->
  <text x="600" y="560" text-anchor="middle" font-family="sans-serif" font-weight="500" font-size="24" fill="rgba(255,255,255,0.5)">display-pallets.nl</text>
</svg>
